<svg width="174" height="174" viewBox="0 0 174 174" fill="none" xmlns="http://www.w3.org/2000/svg">
<path d="M58 0H29V29H58V0Z" fill="#2CDF9D"/>
<path d="M174 145H145V174H174V145Z" fill="#00FFA1"/>
<path d="M29 58H0V87H29V58Z" fill="#00C67D"/>
<path d="M29 58H0V87H29V58Z" fill="#00C67D"/>
<path d="M87 0H58V29H87V0Z" fill="#00C67D"/>
<path d="M58 87H29V116H58V87Z" fill="#00C67D"/>
<path d="M58 87H37V116H58V87Z" fill="#00DD8A"/>
<path d="M87 87H58V116H87V87Z" fill="#00C67D"/>
<path d="M145 116H116V145H145V116Z" fill="#00FFA1"/>
<path d="M116 58H87V87H116V58Z" fill="#00FFA1"/>
<path d="M116 87H87V116H116V87Z" fill="#106C4A"/>
<path d="M116 29H87V58H116V29Z" fill="#00C67D"/>
<path d="M145 145H116V174H145V145Z" fill="#106C4A"/>
<path d="M29 29H0V58H29V29Z" fill="#106C4A"/>
<path d="M58 0H29V8H58V0Z" fill="#106C4A"/>
<path d="M116 68.0002H87V76.0002H116V68.0002Z" fill="#00C67D"/>
<path d="M37 29.0002L37 0.000244141L29 0.000244141L29 29.0002H37Z" fill="#00C67D"/>
<path d="M145 145V126H137V145H145Z" fill="#00BB75"/>
<path d="M37 8.00024V0.000244141L29 0.000244141V8.00024L37 8.00024Z" fill="#2CDF9D"/>
</svg>

